<svg data-v-423bf9ae="" xmlns="http://www.w3.org/2000/svg" viewBox="0 0 542 90" class="iconLeft"><!----><!----><!----><g data-v-423bf9ae="" id="683bd298-81cc-4740-b5b8-d1415aa7361f" fill="white" transform="matrix(4.608460903167725,0,0,4.608460903167725,105.15751647949219,-6.4761481285095215)"><path d="M10.89 8.75L9.27 7.81L7.92 7.81L6.61 8.57L5.31 7.81L3.96 7.81L2.97 8.39L2.63 7.81L1.05 7.81L1.05 14.88L2.97 14.88L2.97 9.45L5.01 9.45L5.01 14.88L6.93 14.88L6.93 9.45L8.97 9.45L8.97 14.88L10.89 14.88ZM19.22 14.01L19.22 8.75L17.60 7.81L14.62 7.81L12.99 8.75L12.99 14.01L14.62 14.95L17.60 14.95ZM14.91 9.45L17.30 9.45L17.30 13.31L14.91 13.31ZM22.95 7.81L21.32 8.75L21.32 14.01L22.95 14.95L24.78 14.95L25.77 14.38L26.11 14.95L27.69 14.95L27.69 4.66L25.77 4.66L25.77 8.39L24.78 7.81ZM25.77 13.31L23.24 13.31L23.24 9.45L25.77 9.45ZM29.79 14.01L31.42 14.95L33.11 14.95L34.10 14.38L34.44 14.95L36.02 14.95L36.02 7.88L34.10 7.88L34.10 13.31L31.71 13.31L31.71 7.88L29.79 7.88ZM39.75 14.88L41.44 14.88L41.44 13.24L40.04 13.24L40.04 4.66L38.12 4.66L38.12 13.94ZM44.34 12.12L46.31 12.12L46.31 13.34L44.34 13.34ZM44.04 14.95L45.32 14.95L46.31 14.38L47.31 14.95L48.23 14.95L48.23 8.82L46.61 7.88L43.12 7.88L43.12 9.52L46.31 9.52L46.31 10.65L44.04 10.65L42.42 11.59L42.42 14.01ZM54.66 9.52L54.66 7.88L53.24 7.88L52.25 8.46L51.91 7.88L50.33 7.88L50.33 14.88L52.25 14.88L52.25 9.52ZM56.60 17.68L58.49 17.68L62.43 7.88L60.51 7.88L58.88 12.00L58.86 12.00L57.13 7.88L55.22 7.88L57.89 14.39ZM63.13 13.54L63.13 14.88L68.67 14.88L68.67 13.24L65.65 13.24L65.65 13.22L68.67 9.23L68.67 7.88L63.27 7.88L63.27 9.52L66.15 9.52L66.15 9.55ZM71.99 12.12L73.96 12.12L73.96 13.34L71.99 13.34ZM71.69 14.95L72.97 14.95L73.96 14.38L74.96 14.95L75.88 14.95L75.88 8.82L74.26 7.88L70.77 7.88L70.77 9.52L73.96 9.52L73.96 10.65L71.69 10.65L70.07 11.59L70.07 14.01ZM79.90 9.52L83.37 9.52L83.37 7.88L79.60 7.88L77.98 8.82L77.98 13.94L79.60 14.88L83.37 14.88L83.37 13.24L79.90 13.24ZM85.12 6.58L87.18 6.58L87.18 4.66L85.12 4.66ZM87.11 7.88L85.19 7.88L85.19 16.04L83.79 16.04L83.79 17.68L85.48 17.68L87.11 16.74ZM90.85 12.12L92.82 12.12L92.82 13.34L90.85 13.34ZM90.55 14.95L91.83 14.95L92.82 14.38L93.81 14.95L94.74 14.95L94.74 8.82L93.11 7.88L89.63 7.88L89.63 9.52L92.82 9.52L92.82 10.65L90.55 10.65L88.93 11.59L88.93 14.01Z"></path></g><!----><g data-v-423bf9ae="" id="d9cc90d7-7776-4fc7-b37c-ddc252828fde" transform="matrix(1,0,0,1,-5,-5)" stroke="none" fill="white"><path d="M56.33 20.56H43.67V5H5v38.67h15.56v12.66H5V95h38.67V79.44h12.66V95H95V56.33H79.44V43.67H95V5H56.33zM13 13h22.67v22.67H13zm22.67 74H13V64.33h22.67zM87 87H64.33V64.33H87zM71.44 56.33H56.33v15.11H43.67V56.33H28.56V43.67h15.11V28.56h12.66v15.11h15.11zM64.33 13H87v22.67H64.33z"></path></g><!----></svg>