<svg data-v-fde0c5aa="" xmlns="http://www.w3.org/2000/svg" viewBox="0 0 300 300" class="iconAbove"><!----><defs data-v-fde0c5aa=""><!----></defs><rect data-v-fde0c5aa="" fill="transparent" x="0" y="0" width="300px" height="300px" class="logo-background-square"></rect><defs data-v-fde0c5aa=""><linearGradient data-v-fde0c5aa="" gradientTransform="rotate(25)" id="9899bc48-de0b-42a3-9507-445e5df3a52e" x1="0%" y1="0%" x2="100%" y2="0%"><stop data-v-fde0c5aa="" offset="0%" stop-color="#9284DB" stop-opacity="1"></stop><stop data-v-fde0c5aa="" offset="100%" stop-color="#2705C7" stop-opacity="1"></stop></linearGradient></defs><g data-v-fde0c5aa="" id="9c025767-c877-498e-85e7-2af6bcfae6b1" fill="url(#9899bc48-de0b-42a3-9507-445e5df3a52e)" transform="matrix(3.0250420570373535,0,0,3.0250420570373535,16.49047857110397,155.17733945371086)"><path d="M1.16 17.18L1.76 8.43L3.37 8.43L5.49 15.40L5.59 15.40L7.71 8.43L9.32 8.43L9.93 17.18L8.82 17.18L8.33 9.74L8.25 9.74L6.01 17.18L5.08 17.18L2.84 9.74L2.76 9.74L2.27 17.18L1.16 17.18ZM14.91 17.30L14.91 17.30Q13.66 17.30 13.06 17.02L13.06 17.02L13.06 17.02Q12.46 16.73 12.24 15.98L12.24 15.98L12.24 15.98Q12.01 15.23 12.01 13.68L12.01 13.68L12.01 13.68Q12.01 12.12 12.24 11.38L12.24 11.38L12.24 11.38Q12.46 10.63 13.06 10.34L13.06 10.34L13.06 10.34Q13.66 10.05 14.91 10.05L14.91 10.05L14.91 10.05Q16.17 10.05 16.77 10.33L16.77 10.33L16.77 10.33Q17.37 10.61 17.60 11.36L17.60 11.36L17.60 11.36Q17.82 12.11 17.82 13.68L17.82 13.68L17.82 13.68Q17.82 15.23 17.60 15.98L17.60 15.98L17.60 15.98Q17.37 16.73 16.77 17.02L16.77 17.02L16.77 17.02Q16.16 17.30 14.91 17.30L14.91 17.30ZM13.16 16.35L15.97 16.35L15.97 16.35Q16.39 16.35 16.53 16.28L16.53 16.28L16.53 16.28Q16.67 16.21 16.67 16.00L16.67 16.00L16.67 11.00L13.86 11.00L13.86 11.00Q13.44 11.00 13.30 11.07L13.30 11.07L13.30 11.07Q13.16 11.14 13.16 11.35L13.16 11.35L13.16 16.35ZM24.15 7.83L25.27 7.67L25.27 17.18L24.78 17.18L24.51 16.63L24.51 16.63Q24.25 17.07 23.73 17.23L23.73 17.23L23.73 17.23Q23.21 17.39 22.26 17.39L22.26 17.39L22.26 17.39Q21.13 17.39 20.59 17.12L20.59 17.12L20.59 17.12Q20.06 16.84 19.87 16.08L19.87 16.08L19.87 16.08Q19.67 15.32 19.67 13.68L19.67 13.68L19.67 13.68Q19.67 12.14 19.86 11.39L19.86 11.39L19.86 11.39Q20.05 10.64 20.54 10.35L20.54 10.35L20.54 10.35Q21.03 10.05 22.04 10.05L22.04 10.05L22.04 10.05Q22.83 10.05 23.34 10.14L23.34 10.14L23.34 10.14Q23.84 10.22 24.15 10.42L24.15 10.42L24.15 7.83ZM24.15 16.09L24.15 11.00L21.49 11.00L21.49 11.00Q21.10 11.00 20.97 11.07L20.97 11.07L20.97 11.07Q20.83 11.14 20.83 11.35L20.83 11.35L20.83 16.44L23.48 16.44L23.48 16.44Q23.88 16.44 24.02 16.37L24.02 16.37L24.02 16.37Q24.15 16.30 24.15 16.09L24.15 16.09ZM33.28 10.18L33.28 17.18L32.79 17.18L32.48 16.48L32.48 16.48Q31.93 16.91 31.27 17.11L31.27 17.11L31.27 17.11Q30.60 17.30 29.74 17.30L29.74 17.30L29.74 17.30Q28.81 17.30 28.38 16.98L28.38 16.98L28.38 16.98Q27.94 16.65 27.94 15.95L27.94 15.95L27.94 10.18L29.06 10.18L29.06 16.39L30.84 16.39L30.84 16.39Q31.61 16.39 31.89 16.21L31.89 16.21L31.89 16.21Q32.16 16.03 32.16 15.50L32.16 15.50L32.16 10.18L33.28 10.18ZM37.06 16.34L37.69 16.39L37.62 17.16L37.62 17.16Q37.20 17.30 36.82 17.30L36.82 17.30L36.82 17.30Q35.94 17.30 35.94 16.35L35.94 16.35L35.94 8.08L37.06 7.87L37.06 16.34ZM42.15 10.05L42.15 10.05Q43.09 10.05 43.62 10.23L43.62 10.23L43.62 10.23Q44.14 10.40 44.37 10.81L44.37 10.81L44.37 10.81Q44.60 11.21 44.60 11.91L44.60 11.91L44.60 17.18L44.11 17.18L43.79 16.48L43.79 16.48Q43.30 16.91 42.69 17.11L42.69 17.11L42.69 17.11Q42.07 17.30 41.27 17.30L41.27 17.30L41.27 17.30Q40.14 17.30 39.66 16.84L39.66 16.84L39.66 16.84Q39.19 16.37 39.19 15.26L39.19 15.26L39.19 15.26Q39.19 14.20 39.45 13.76L39.45 13.76L39.45 13.76Q39.72 13.33 40.53 13.19L40.53 13.19L40.53 13.19Q41.34 13.05 43.32 13.05L43.32 13.05L43.48 13.05L43.48 11.14L43.48 11.14Q42.92 10.98 41.93 10.98L41.93 10.98L41.93 10.98Q40.85 10.98 39.65 11.30L39.65 11.30L39.49 10.46L39.49 10.46Q39.94 10.28 40.70 10.16L40.70 10.16L40.70 10.16Q41.45 10.05 42.15 10.05L42.15 10.05ZM42.34 16.39L42.34 16.39Q43.01 16.39 43.25 16.21L43.25 16.21L43.25 16.21Q43.48 16.03 43.48 15.53L43.48 15.53L43.48 13.86L41.37 13.86L41.37 13.86Q40.68 13.86 40.44 14.04L40.44 14.04L40.44 14.04Q40.19 14.22 40.19 14.71L40.19 14.71L40.19 16.39L42.34 16.39ZM47.78 10.18L48.22 11.33L48.22 11.33Q48.89 10.74 49.33 10.42L49.33 10.42L49.33 10.42Q49.77 10.11 50.11 9.97L50.11 9.97L50.25 11.07L50.25 11.07Q49.77 11.23 49.27 11.49L49.27 11.49L49.27 11.49Q48.76 11.76 48.40 12.04L48.40 12.04L48.40 17.18L47.28 17.18L47.28 10.18L47.78 10.18ZM55.37 10.18L56.49 10.18L54.39 16.81L54.39 16.81Q54.05 17.89 53.69 18.49L53.69 18.49L53.69 18.49Q53.33 19.10 52.84 19.36L52.84 19.36L52.84 19.36Q52.36 19.61 51.65 19.61L51.65 19.61L51.65 19.61Q51.04 19.61 50.53 19.47L50.53 19.47L50.57 18.87L51.39 18.77L51.39 18.77Q51.97 18.69 52.28 18.55L52.28 18.55L52.28 18.55Q52.58 18.41 52.78 18.12L52.78 18.12L52.78 18.12Q52.98 17.84 53.14 17.29L53.14 17.29L53.28 16.81L52.68 16.81L50.58 10.18L51.70 10.18L53.47 15.88L53.61 15.88L55.37 10.18ZM61.11 11.07L61.04 10.99L57.54 10.99L57.44 10.18L62.48 10.18L62.48 10.79L58.52 16.28L58.56 16.37L62.38 16.37L62.38 17.18L57.15 17.18L57.15 16.56L61.11 11.07ZM66.86 10.05L66.86 10.05Q67.80 10.05 68.33 10.23L68.33 10.23L68.33 10.23Q68.85 10.40 69.08 10.81L69.08 10.81L69.08 10.81Q69.31 11.21 69.31 11.91L69.31 11.91L69.31 17.18L68.82 17.18L68.50 16.48L68.50 16.48Q68.01 16.91 67.40 17.11L67.40 17.11L67.40 17.11Q66.78 17.30 65.98 17.30L65.98 17.30L65.98 17.30Q64.85 17.30 64.37 16.84L64.37 16.84L64.37 16.84Q63.90 16.37 63.90 15.26L63.90 15.26L63.90 15.26Q63.90 14.20 64.16 13.76L64.16 13.76L64.16 13.76Q64.43 13.33 65.24 13.19L65.24 13.19L65.24 13.19Q66.05 13.05 68.03 13.05L68.03 13.05L68.19 13.05L68.19 11.14L68.19 11.14Q67.63 10.98 66.64 10.98L66.64 10.98L66.64 10.98Q65.56 10.98 64.36 11.30L64.36 11.30L64.20 10.46L64.20 10.46Q64.65 10.28 65.41 10.16L65.41 10.16L65.41 10.16Q66.16 10.05 66.86 10.05L66.86 10.05ZM67.05 16.39L67.05 16.39Q67.72 16.39 67.96 16.21L67.96 16.21L67.96 16.21Q68.19 16.03 68.19 15.53L68.19 15.53L68.19 13.86L66.08 13.86L66.08 13.86Q65.39 13.86 65.15 14.04L65.15 14.04L65.15 14.04Q64.90 14.22 64.90 14.71L64.90 14.71L64.90 16.39L67.05 16.39ZM73.92 17.30L73.92 17.30Q72.90 17.30 72.41 17.02L72.41 17.02L72.41 17.02Q71.92 16.73 71.73 15.97L71.73 15.97L71.73 15.97Q71.54 15.22 71.54 13.68L71.54 13.68L71.54 13.68Q71.54 12.12 71.73 11.38L71.73 11.38L71.73 11.38Q71.92 10.63 72.41 10.34L72.41 10.34L72.41 10.34Q72.90 10.05 73.92 10.05L73.92 10.05L73.92 10.05Q75.18 10.05 76.17 10.29L76.17 10.29L76.02 11.19L76.02 11.19Q74.93 10.98 73.96 10.98L73.96 10.98L73.96 10.98Q73.25 10.98 72.97 11.24L72.97 11.24L72.97 11.24Q72.69 11.51 72.69 12.18L72.69 12.18L72.69 16.21L72.69 16.21Q73.23 16.38 74.26 16.38L74.26 16.38L74.26 16.38Q74.70 16.38 75.13 16.31L75.13 16.31L75.13 16.31Q75.56 16.24 76.19 16.06L76.19 16.06L76.33 16.90L76.33 16.90Q75.88 17.09 75.24 17.20L75.24 17.20L75.24 17.20Q74.59 17.30 73.92 17.30L73.92 17.30ZM76.97 17.18L76.97 17.18ZM77.85 19.61L77.85 19.61Q77.34 19.61 76.92 19.47L76.92 19.47L77.00 18.84L77.00 18.84Q77.60 18.84 77.88 18.78L77.88 18.78L77.88 18.78Q78.15 18.72 78.25 18.55L78.25 18.55L78.25 18.55Q78.34 18.38 78.34 18.00L78.34 18.00L78.34 10.22L79.46 10.04L79.46 18.16L79.46 18.16Q79.46 18.90 79.07 19.26L79.07 19.26L79.07 19.26Q78.67 19.61 77.85 19.61L77.85 19.61ZM78.92 8.83L78.92 8.83Q78.48 8.83 78.33 8.69L78.33 8.69L78.33 8.69Q78.18 8.54 78.18 8.12L78.18 8.12L78.18 8.12Q78.18 7.69 78.33 7.53L78.33 7.53L78.33 7.53Q78.48 7.38 78.92 7.38L78.92 7.38L78.92 7.38Q79.34 7.38 79.49 7.53L79.49 7.53L79.49 7.53Q79.63 7.69 79.63 8.12L79.63 8.12L79.63 8.12Q79.63 8.54 79.49 8.69L79.49 8.69L79.49 8.69Q79.35 8.83 78.92 8.83L78.92 8.83ZM84.66 10.05L84.66 10.05Q85.60 10.05 86.12 10.23L86.12 10.23L86.12 10.23Q86.65 10.40 86.88 10.81L86.88 10.81L86.88 10.81Q87.11 11.21 87.11 11.91L87.11 11.91L87.11 17.18L86.62 17.18L86.30 16.48L86.30 16.48Q85.81 16.91 85.19 17.11L85.19 17.11L85.19 17.11Q84.57 17.30 83.78 17.30L83.78 17.30L83.78 17.30Q82.64 17.30 82.17 16.84L82.17 16.84L82.17 16.84Q81.69 16.37 81.69 15.26L81.69 15.26L81.69 15.26Q81.69 14.20 81.96 13.76L81.96 13.76L81.96 13.76Q82.22 13.33 83.03 13.19L83.03 13.19L83.03 13.19Q83.85 13.05 85.82 13.05L85.82 13.05L85.99 13.05L85.99 11.14L85.99 11.14Q85.43 10.98 84.43 10.98L84.43 10.98L84.43 10.98Q83.36 10.98 82.15 11.30L82.15 11.30L82.00 10.46L82.00 10.46Q82.45 10.28 83.20 10.16L83.20 10.16L83.20 10.16Q83.96 10.05 84.66 10.05L84.66 10.05ZM84.84 16.39L84.84 16.39Q85.51 16.39 85.75 16.21L85.75 16.21L85.75 16.21Q85.99 16.03 85.99 15.53L85.99 15.53L85.99 13.86L83.87 13.86L83.87 13.86Q83.19 13.86 82.94 14.04L82.94 14.04L82.94 14.04Q82.70 14.22 82.70 14.71L82.70 14.71L82.70 16.39L84.84 16.39Z"></path></g><defs data-v-fde0c5aa=""><linearGradient data-v-fde0c5aa="" gradientTransform="rotate(25)" id="7cec145d-8545-4da1-b5e1-6244a0b560fe" x1="0%" y1="0%" x2="100%" y2="0%"><stop data-v-fde0c5aa="" offset="0%" stop-color="#9284DB" stop-opacity="1"></stop><stop data-v-fde0c5aa="" offset="100%" stop-color="#2705C7" stop-opacity="1"></stop></linearGradient></defs><g data-v-fde0c5aa="" id="4b7230b0-b10b-4f47-8512-6131e5eb780f" stroke="none" fill="url(#7cec145d-8545-4da1-b5e1-6244a0b560fe)" transform="matrix(0.8808971643447876,0,0,0.8808971643447876,105.9551403163638,78.4562992492366)"><path d="M65 45.5l-15-8.7-15 8.7 15 8.7z"></path><path d="M50 34.5l17 9.8 3-1.7V19.5L50 8 30 19.5v23.1l3 1.7zM33 48.3v18l15.7 9V57.4z"></path><path d="M31 67.4V47.2l-2.3-1.4-20 11.6v23.1l20 11.5 20-11.5v-2.9zM69 47.2v20.2L51.3 77.6v2.9l20 11.5 20-11.5V57.4l-20-11.6z"></path><path d="M67 66.3v-18l-15.7 9.1v17.9z"></path></g><!----></svg>